<svg width="32" height="33" viewBox="0 0 32 33" fill="none" xmlns="http://www.w3.org/2000/svg">
<rect y="0.5" width="32" height="32" rx="16" fill="#2DC071"/>
<g clip-path="url(#clip0_827_94)">
<path fill-rule="evenodd" clip-rule="evenodd" d="M24.2957 10.7043C24.3604 10.769 24.4118 10.8457 24.4469 10.9302C24.4819 11.0147 24.5 11.1053 24.5 11.1968C24.5 11.2883 24.4819 11.3789 24.4469 11.4634C24.4118 11.5479 24.3604 11.6246 24.2957 11.6893L14.5578 21.4271C14.4932 21.4919 14.4164 21.5433 14.3319 21.5783C14.2474 21.6134 14.1568 21.6314 14.0654 21.6314C13.9739 21.6314 13.8833 21.6134 13.7988 21.5783C13.7143 21.5433 13.6375 21.4919 13.5729 21.4271L8.70398 16.5582C8.57337 16.4276 8.5 16.2504 8.5 16.0657C8.5 15.881 8.57337 15.7039 8.70398 15.5733C8.83459 15.4427 9.01173 15.3693 9.19644 15.3693C9.38115 15.3693 9.55829 15.4427 9.6889 15.5733L14.0654 19.9511L23.3107 10.7043C23.3754 10.6396 23.4521 10.5882 23.5366 10.5531C23.6211 10.518 23.7117 10.5 23.8032 10.5C23.8947 10.5 23.9853 10.518 24.0698 10.5531C24.1543 10.5882 24.231 10.6396 24.2957 10.7043V10.7043Z" fill="white"/>
</g>
<defs>
<clipPath id="clip0_827_94">
<rect width="16" height="11" fill="white" transform="translate(8 10.5)"/>
</clipPath>
</defs>
</svg>
